# xmcd
#
# Track frame offsets:
#	182
#	12795
#	25670
#	36237
#	45637
#	55347
#	66717
#	78545
#	102137
#	117870
#	129575
#	146722
#	164790
#	180505
#
# Disc length: 2696 seconds
#
# Revision: 2
# Processed by: cddbd v1.5.2PL0 Copyright (c) Steve Scherf et al.
# Submitted via: audiograbber 1.83.01
#
DISCID=c40a860e
DTITLE=Sammy Davis Jnr - The Very Best Of Sammy Davis Jnr [Disc 1]
DYEAR=0
DGENRE=Jazz
TTITLE0=Hey There
TTITLE1=September Song
TTITLE2=Too Close For Comfort
TTITLE3=Something's Gotta Give
TTITLE4=Lonesome Road
TTITLE5=Perdido (Lost)
TTITLE6=That Old Black Magic
TTITLE7=Birth Of The Blues
TTITLE8=There's A Small Hotel
TTITLE9=Who Cares
TTITLE10=I Loves You Porgy
TTITLE11=There's A Boat That's Leaving Soon For New York
TTITLE12=I Got Plenty O' Nuttin'
TTITLE13=Bess You Is My Woman
EXTD=
EXTT0=
EXTT1=
EXTT2=
EXTT3=
EXTT4=
EXTT5=
EXTT6=
EXTT7=
EXTT8=
EXTT9=
EXTT10=
EXTT11=
EXTT12=
EXTT13=
PLAYORDER=
